<svg width="182" height="147" viewBox="0 0 182 147" fill="none" xmlns="http://www.w3.org/2000/svg">
<g clip-path="url(#clip0_1_405)">
<path d="M47.1767 51.3242C54.3422 36.3577 56.2685 18.7549 70.3157 8.31505C79.6727 1.36184 92.8032 -0.778543 105.078 0.241261C117.352 1.26107 129.04 5.11456 140.533 8.98014C155.874 14.1356 163.286 30.646 158.949 43.9881C155.329 55.1293 144.334 63.5215 140.189 74.5258C137.364 82.0272 137.951 90.1131 137.746 97.9974C137.485 107.998 135.801 118.224 130.278 127.007C123.461 137.854 113.816 141.7 100.727 143.917C85.312 146.529 72.5165 148.52 57.227 143.24C28.8534 133.437 14.6202 102.834 27.6483 78.4679C31.4777 71.3091 38.1733 65.6216 42.8587 58.8538C44.5198 56.4595 45.9297 53.9322 47.1767 51.3242Z" fill="#778A98" fill-opacity="0.17"/>
<path d="M126.29 89.2103C136.08 94.1077 148.899 94.0876 158.67 89.1538C162.188 87.3803 165.408 84.9093 166.99 81.6605C167.548 80.5157 167.897 79.2863 168.381 78.1174C168.739 77.2386 169.172 76.4002 169.819 75.6545C171.461 73.752 174.253 72.7805 175.858 70.8538C177.812 68.5078 177.566 65.2428 176.379 62.5381C175.193 59.8334 173.192 57.4552 171.749 54.8473C168.162 48.3616 171.656 41.6745 167.874 34.9712C163.76 27.6874 156.181 22.0402 148.257 17.965C126.048 6.54561 98.0379 4.00618 73.596 11.2012C64.2251 13.9583 53.5978 19.6459 43.4172 19.267C35.4188 18.9687 26.9505 18.0335 23.3631 26.5104C20.3108 33.7216 27.3553 37.9016 31.622 42.9522C36.4145 48.6236 34.5394 56.0646 33.1668 62.4293C31.636 69.5397 32.9481 77.1782 39.9833 81.8822C44.2454 84.732 49.6707 85.8929 54.9611 86.7676C62.2941 87.9768 69.3619 86.699 75.6759 83.2124C77.4394 82.2369 79.1144 81.0962 80.3567 79.641C82.4692 77.1701 83.1718 74.0099 83.4044 70.9425C83.9767 63.4169 81.8969 50.8688 85.4331 45.0805C87.1872 42.2065 83.7813 41.7148 86.3032 39.3043C88.3784 37.3171 91.4121 36.2167 94.4784 35.87C98.9684 35.3662 103.673 36.4223 107.311 38.7602C115.026 43.71 114.956 51.4211 112.969 58.8338C111.541 64.1787 109.363 69.8944 111.783 74.9612C114.514 80.677 120.13 86.1267 126.29 89.2103Z" stroke="#0D3451" stroke-miterlimit="10" stroke-dasharray="4 4"/>
<path d="M127.616 15.7725H84.9771V42.7348H127.616V15.7725Z" fill="#0D3451" stroke="white" stroke-width="0.5" stroke-miterlimit="10"/>
<path d="M125.387 18.4648H82.748V45.4272H125.387V18.4648Z" fill="#0D3451" stroke="white" stroke-width="0.5" stroke-miterlimit="10"/>
<path d="M122.838 20.0649H80.6124V47.0273H122.838V20.0649Z" fill="#0D3451" stroke="white" stroke-width="0.5" stroke-miterlimit="10"/>
<path d="M109.433 20.1049V47.1197" stroke="white" stroke-width="0.5" stroke-miterlimit="10"/>
<path d="M94.1572 20.1049V47.1197" stroke="white" stroke-width="0.5" stroke-miterlimit="10"/>
<path d="M80.459 33.5277H122.68" stroke="white" stroke-width="0.5" stroke-miterlimit="10"/>
<path d="M104.356 38.2119L101.695 41.3761L99.8617 39.6026C99.6477 39.7436 99.443 39.8968 99.2476 40.054L101.76 42.4806L104.98 38.6513C104.775 38.5062 104.566 38.357 104.356 38.2119Z" fill="#0D3451" stroke="white" stroke-width="0.5" stroke-miterlimit="10"/>
<path d="M117.971 38.2119L115.31 41.3761L113.476 39.6026C113.262 39.7436 113.057 39.8968 112.862 40.054L115.375 42.4806L118.594 38.6513C118.39 38.5062 118.18 38.357 117.971 38.2119Z" fill="#0D3451" stroke="white" stroke-width="0.5" stroke-miterlimit="10"/>
<path d="M90.1 38.0913L87.3408 41.4409L85.3913 39.5908C85.1679 39.7399 84.9585 39.9012 84.7491 40.0705L87.4199 42.6018L90.7607 38.5468C90.542 38.3936 90.3233 38.2404 90.1 38.0913Z" fill="#0D3451" stroke="white" stroke-width="0.5" stroke-miterlimit="10"/>
<path d="M104.082 24.9102L101.42 28.0744L99.5872 26.3008C99.3732 26.4419 99.1684 26.5951 98.973 26.7523L101.486 29.1788L104.705 25.3495C104.501 25.2004 104.291 25.0553 104.082 24.9102Z" fill="#0D3451" stroke="white" stroke-width="0.5" stroke-miterlimit="10"/>
<path d="M117.613 24.9102L114.951 28.0744L113.118 26.3008C112.904 26.4419 112.699 26.5951 112.504 26.7523L115.016 29.1788L118.236 25.3495C118.031 25.2004 117.827 25.0553 117.613 24.9102Z" fill="#0D3451" stroke="white" stroke-width="0.5" stroke-miterlimit="10"/>
<path d="M89.9043 24.7896L87.1451 28.1392L85.1956 26.289C84.9722 26.4382 84.7628 26.5994 84.5535 26.7687L87.2242 29.3001L90.565 25.245C90.3464 25.0919 90.1277 24.9387 89.9043 24.7896Z" fill="#0D3451" stroke="white" stroke-width="0.5" stroke-miterlimit="10"/>
<path d="M16.9883 159.137L23.9909 127.91L43.5332 127.777L52.1644 159.266" stroke="#0D3451" stroke-width="4" stroke-miterlimit="10"/>
<path d="M23.6655 156.662L29.3654 127.084L48.9076 126.955L57.3806 156.795" stroke="#0D3451" stroke-width="4" stroke-miterlimit="10"/>
<path d="M128.877 157.997L135.88 124.134L155.427 123.993L164.058 158.138" stroke="#0D3451" stroke-width="4" stroke-miterlimit="10"/>
<path d="M135.554 155.316L141.259 123.243L160.801 123.102L169.269 155.457" stroke="#0D3451" stroke-width="4" stroke-miterlimit="10"/>
<path d="M71.8557 132.361C73.7774 132.973 74.6754 133.348 76.6575 133.788C71.5812 139.866 64.0016 150.737 62.508 152.466C60.3677 151.418 58.2878 151.08 56.2684 149.842C58.4786 142.297 62.0101 138.621 64.9415 129.982C67.2168 130.829 69.5246 131.619 71.8557 132.361Z" fill="white" stroke="#0D3451" stroke-width="0.5" stroke-miterlimit="10"/>
<path d="M64.6903 152.329C79.8216 168.275 61.5449 157.537 55.2634 152.579C54.1281 151.35 55.9614 149.209 56.6547 147.299C61.4192 152.293 65.9884 146.63 64.6903 152.329Z" fill="black" stroke="#0D3451" stroke-miterlimit="10"/>
<path d="M84.316 93.4753L82.8038 97.7601C85.7771 97.7279 88.7642 97.6755 91.7281 97.7158C92.5005 97.7238 93.3706 97.5707 94.0965 97.3732C94.9014 97.1555 95.6645 96.7685 96.1391 96.1841C96.3624 95.91 96.5206 95.5794 96.4834 95.2449C96.4462 94.8902 96.1996 94.5798 95.939 94.2976C95.4365 93.7615 94.7944 93.2617 93.9988 93.1529C93.3334 93.0602 92.7052 93.2617 92.0678 93.3584C91.3931 93.4592 90.6719 93.5116 89.9833 93.4874C88.8201 93.4431 88.0058 92.6813 87.1915 92.0686C86.8472 91.8106 86.3959 91.6816 85.9399 91.7139" fill="white"/>
<path d="M84.316 93.4753L82.8038 97.7601C85.7771 97.7279 88.7642 97.6755 91.7281 97.7158C92.5005 97.7238 93.3706 97.5707 94.0965 97.3732C94.9014 97.1555 95.6645 96.7685 96.1391 96.1841C96.3624 95.91 96.5206 95.5794 96.4834 95.2449C96.4462 94.8902 96.1996 94.5798 95.939 94.2976C95.4365 93.7615 94.7944 93.2617 93.9988 93.1529C93.3334 93.0602 92.7052 93.2617 92.0678 93.3584C91.3931 93.4592 90.6719 93.5116 89.9833 93.4874C88.8201 93.4431 88.0058 92.6813 87.1915 92.0686C86.8472 91.8106 86.3959 91.6816 85.9399 91.7139" stroke="#0D3451" stroke-width="0.5" stroke-miterlimit="10"/>
<path d="M84.4697 96.7246L85.256 97.821C85.484 98.1435 85.3305 98.5586 84.9257 98.7038C84.6186 98.8126 84.2603 98.736 84.0509 98.5103L82.7714 97.1358" fill="white"/>
<path d="M84.4697 96.7246L85.256 97.821C85.484 98.1435 85.3305 98.5586 84.9257 98.7038C84.6186 98.8126 84.2603 98.736 84.0509 98.5103L82.7714 97.1358" stroke="#0D3451" stroke-width="0.5" stroke-miterlimit="10"/>
<path d="M86.1077 96.3979L86.9498 97.583C87.1732 97.9337 86.9917 98.369 86.5543 98.5182C86.1914 98.6431 85.768 98.5222 85.5633 98.236L84.4745 96.7245" fill="white"/>
<path d="M86.1077 96.3979L86.9498 97.583C87.1732 97.9337 86.9917 98.369 86.5543 98.5182C86.1914 98.6431 85.768 98.5222 85.5633 98.236L84.4745 96.7245" stroke="#0D3451" stroke-width="0.5" stroke-miterlimit="10"/>
<path d="M86.1077 96.3978L87.2151 97.9054C87.5595 98.244 87.9131 98.2722 88.2295 98.1835L88.2481 98.1795C88.732 98.0464 88.9321 97.5668 88.6575 97.2C88.4389 96.9097 88.1829 96.5711 87.9596 96.2729C87.5595 95.7408 87.0849 95.2531 86.5405 94.8218C86.5405 94.8218 83.7348 92.5766 83.7301 92.5725C81.5944 90.8635 78.7375 91.8994 76.1319 91.3552C75.5363 91.2303 74.8942 91.0811 74.3219 91.2746C73.9636 91.3915 73.6798 91.6293 73.4285 91.8792C73.1028 92.2017 72.805 92.5605 72.6794 92.9756C72.5538 93.3908 72.6236 93.8665 72.9586 94.1849C73.3308 94.5356 73.9264 94.6162 74.4708 94.7049C76.7042 95.0757 78.5747 96.2285 80.5242 97.1838C80.6778 97.2604 80.8174 97.3531 80.943 97.4579L82.5064 98.7438C82.7065 98.8889 82.981 98.9292 83.2229 98.8526C83.6603 98.7156 83.8139 98.2601 83.5347 97.9416L82.8414 97.1597" fill="white"/>
<path d="M86.1077 96.3978L87.2151 97.9054C87.5595 98.244 87.9131 98.2722 88.2295 98.1835L88.2481 98.1795C88.732 98.0464 88.9321 97.5668 88.6575 97.2C88.4389 96.9097 88.1829 96.5711 87.9596 96.2729C87.5595 95.7408 87.0849 95.2531 86.5405 94.8218C86.5405 94.8218 83.7348 92.5766 83.7301 92.5725C81.5944 90.8635 78.7375 91.8994 76.1319 91.3552C75.5363 91.2303 74.8942 91.0811 74.3219 91.2746C73.9636 91.3915 73.6798 91.6293 73.4285 91.8792C73.1028 92.2017 72.805 92.5605 72.6794 92.9756C72.5538 93.3908 72.6236 93.8665 72.9586 94.1849C73.3308 94.5356 73.9264 94.6162 74.4708 94.7049C76.7042 95.0757 78.5747 96.2285 80.5242 97.1838C80.6778 97.2604 80.8174 97.3531 80.943 97.4579L82.5064 98.7438C82.7065 98.8889 82.981 98.9292 83.2229 98.8526C83.6603 98.7156 83.8139 98.2601 83.5347 97.9416L82.8414 97.1597" stroke="#0D3451" stroke-width="0.5" stroke-miterlimit="10"/>
<path d="M85.94 91.71C84.4511 91.8027 83.0366 92.1171 81.5244 92.0727C81.3336 92.0687 81.1335 92.0606 80.9521 92.113C80.7706 92.1695 80.6124 92.3065 80.617 92.4678C80.6403 93.3828 83.9067 93.2578 84.6279 93.3062C84.8093 93.3183 84.8745 93.3949 85.0606 93.411" fill="white"/>
<path d="M85.94 91.71C84.4511 91.8027 83.0366 92.1171 81.5244 92.0727C81.3336 92.0687 81.1335 92.0606 80.9521 92.113C80.7706 92.1695 80.6124 92.3065 80.617 92.4678C80.6403 93.3828 83.9067 93.2578 84.6279 93.3062C84.8093 93.3183 84.8745 93.3949 85.0606 93.411" stroke="#0D3451" stroke-width="0.5" stroke-miterlimit="10"/>
<path d="M81.9944 97.2321C82.2038 96.9782 82.5248 96.5429 82.2643 96.2325C81.9944 95.906 81.4407 95.8818 81.0499 96.0592C81.4407 95.3135 80.5753 94.596 79.6912 94.991C79.9611 94.8701 79.7145 94.4307 79.5609 94.3138C79.198 94.0397 78.9281 94.1848 78.6024 94.3461C78.5978 94.1526 78.4582 93.9672 78.2488 93.8865C77.7928 93.7052 77.3182 94.0558 77.0344 94.3058C76.7087 94.5919 76.0712 94.8943 75.9968 95.3215C75.8851 95.9342 76.6528 96.035 77.1972 96.0471C77.0716 96.4502 77.5229 96.9056 78.0161 96.8855C78.0766 96.8815 78.1371 96.8774 78.1883 96.9016C78.2302 96.9258 78.2488 96.9661 78.2674 97.0024C78.4954 97.4498 79.1003 97.7441 79.6726 97.6876C80.2495 98.6389 81.5617 97.7562 81.9944 97.2321Z" fill="white" stroke="#0D3451" stroke-width="0.5" stroke-miterlimit="10"/>
<path d="M81.129 95.9585C81.008 96.027 80.915 96.1238 80.8266 96.2205C80.3985 96.6841 79.9704 97.1436 79.5424 97.6071" stroke="#0D3451" stroke-width="0.5" stroke-miterlimit="10"/>
<path d="M78.1836 96.8008C78.821 96.2203 79.384 95.5754 79.854 94.8901" stroke="#0D3451" stroke-width="0.5" stroke-miterlimit="10"/>
<path d="M78.6072 94.3418C78.1792 94.8295 77.6255 95.5551 77.1974 96.0428" stroke="#0D3451" stroke-width="0.5" stroke-miterlimit="10"/>
<path d="M92.915 91.1212C92.9057 90.968 92.901 90.8108 92.8917 90.6576C98.3822 90.6818 103.659 90.0731 109.326 89.9562C109.712 89.9482 110.108 89.9401 110.475 89.8353C111.522 89.529 113.095 87.1629 113.7 86.3728C114.514 85.3167 115.221 84.1841 115.938 83.0756C117.585 80.5402 118.943 77.3639 121.195 75.1791C122.94 73.4862 125.923 72.7566 128.407 72.3374C129.836 75.1509 129.259 78.5772 130.687 81.3907C130.85 81.7091 131.013 82.0356 131.032 82.3823C131.055 82.8136 130.855 83.2328 130.66 83.6278C129.413 86.1632 128.161 88.6986 126.914 91.234C125.834 93.4228 125.225 95.9461 122.652 97.1634C121.493 97.7116 120.2 98.0018 118.911 98.2517C114.709 99.066 110.415 99.5053 106.115 99.6585C103.961 99.7351 101.802 99.7391 99.6478 99.6867C99.1453 99.6746 93.8177 99.5859 93.7944 99.4408C93.3477 96.6878 93.0499 93.9065 92.915 91.1212Z" fill="#0D3451" stroke="#0D3451" stroke-width="0.5" stroke-miterlimit="10"/>
<path d="M72.5767 136.254C74.2285 135.21 75.094 134.771 76.6155 133.586C79.6352 140.62 85.8562 152.116 86.689 154.151C84.4929 155.111 83.0132 156.421 80.7054 157.191C74.6891 151.406 73.1211 146.823 66.4581 139.914C68.5333 138.741 70.5713 137.52 72.5767 136.254Z" fill="white" stroke="#0D3451" stroke-width="0.5" stroke-miterlimit="10"/>
<path d="M60.6375 113.223C59.8697 112.888 59.0694 112.618 58.2505 112.441C53.7465 111.461 48.9121 111.622 44.6081 110.107C38.564 107.978 34.5951 102.908 31.8731 97.7723C29.1558 92.633 27.276 87.1067 23.5909 82.439C21.5669 79.8754 18.8263 77.5173 15.3366 76.8119C9.94387 75.7276 4.36966 79.0813 2.02459 83.4265C-0.320484 87.7718 -0.120408 92.8063 0.596142 97.5627C1.94549 106.531 4.39758 116.915 12.1633 123.493C14.2897 125.295 16.7418 126.815 19.4591 127.943C19.4777 127.951 19.4963 127.959 19.5149 127.967C22.6975 129.285 26.2058 129.914 29.7374 129.914H60.6282V113.223H60.6375Z" fill="#D89CC7" stroke="#0D3451" stroke-width="0.5" stroke-miterlimit="10"/>
<path d="M1.68005 89.0493C1.82429 92.4957 1.85221 96.3129 2.48036 99.719Z" fill="#D89CC7"/>
<path d="M1.68005 89.0493C1.82429 92.4957 1.85221 96.3129 2.48036 99.719" stroke="#0D3451" stroke-width="0.5" stroke-miterlimit="10"/>
<path d="M11.5725 120.671C13.2755 122.582 15.2762 124.295 17.4957 125.754Z" fill="#D89CC7"/>
<path d="M11.5725 120.671C13.2755 122.582 15.2762 124.295 17.4957 125.754" stroke="#0D3451" stroke-width="0.5" stroke-miterlimit="10"/>
<path d="M18.6355 126.202C19.3986 126.5 20.1291 126.851 20.8224 127.254Z" fill="#D89CC7"/>
<path d="M18.6355 126.202C19.3986 126.5 20.1291 126.851 20.8224 127.254" stroke="#0D3451" stroke-width="0.5" stroke-miterlimit="10"/>
<path d="M14.9272 77.8921C13.6105 77.5817 12.1913 77.6785 10.8978 78.0574C9.6043 78.4322 8.43177 79.0812 7.39417 79.8471" fill="#D89CC7"/>
<path d="M14.9272 77.8921C13.6105 77.5817 12.1913 77.6785 10.8978 78.0574C9.6043 78.4322 8.43177 79.0812 7.39417 79.8471" stroke="#0D3451" stroke-width="0.5" stroke-miterlimit="10"/>
<path d="M77.4114 111.013C73.3122 105.866 53.165 105.862 46.0181 104.979C41.7141 104.447 48.3864 100.331 44.2965 101.879C39.8623 103.56 38.1128 107.442 34.1299 109.61C38.4524 110.384 42.1143 112.343 45.6645 114.52C48.5028 116.261 52.2437 117.229 55.659 117.587C59.0602 117.942 64.4297 114.722 65.4022 118.281C65.9466 120.28 64.346 125.657 63.5968 127.604C61.6798 132.582 59.5535 137.496 57.3945 142.401C58.1762 142.736 58.9625 143.058 59.7535 143.373C63.1316 144.707 66.6073 145.88 69.962 147.263C71.9721 143.723 74.9919 137.955 75.3269 137.21C77.2392 132.937 78.677 128.277 79.3423 123.646C79.9658 119.28 80.4265 114.798 77.4114 111.013Z" fill="#0D3451" stroke="#0D3451" stroke-width="0.5" stroke-miterlimit="10"/>
<path d="M41.3697 109.514C45.6225 110.828 50.2894 110.352 54.7934 110.602C58.7158 110.82 62.6475 111.618 66.0488 113.323C69.4501 115.028 72.293 117.688 73.554 120.913C74.1496 122.437 82.0688 138.149 83.7253 142.317C84.6326 144.602 84.4372 144.848 82.1386 146.114C79.9145 147.339 76.369 149.548 74.1496 150.774C66.7747 142.978 60.6421 134.304 55.9752 125.069C55.9287 124.972 52.8997 125.138 52.574 125.133C51.4247 125.113 50.294 125.041 49.1494 125.057C45.1758 125.113 41.2022 125.138 37.2333 125.21C34.1623 125.266 30.3842 125.456 27.6343 124.037C27.3644 123.896 27.1085 123.739 26.8712 123.561C25.9825 122.876 25.4567 121.905 25.0379 120.937C23.8375 118.168 23.3396 115.177 23.5397 112.223C23.7165 109.599 24.447 106.999 25.7173 104.608C26.0244 104.028 26.3733 103.452 26.8852 102.996C27.6017 102.359 28.5881 102.008 29.5513 101.702" fill="#0D3451"/>
<path d="M41.3697 109.514C45.6225 110.828 50.2894 110.352 54.7934 110.602C58.7158 110.82 62.6475 111.618 66.0488 113.323C69.4501 115.028 72.293 117.688 73.554 120.913C74.1496 122.437 82.0688 138.149 83.7253 142.317C84.6326 144.602 84.4372 144.848 82.1386 146.114C79.9145 147.339 76.369 149.548 74.1496 150.774C66.7747 142.978 60.6421 134.304 55.9752 125.069C55.9287 124.972 52.8997 125.138 52.574 125.133C51.4247 125.113 50.294 125.041 49.1494 125.057C45.1758 125.113 41.2022 125.138 37.2333 125.21C34.1623 125.266 30.3842 125.456 27.6343 124.037C27.3644 123.896 27.1085 123.739 26.8712 123.561C25.9825 122.876 25.4567 121.905 25.0379 120.937C23.8375 118.168 23.3396 115.177 23.5397 112.223C23.7165 109.599 24.447 106.999 25.7173 104.608C26.0244 104.028 26.3733 103.452 26.8852 102.996C27.6017 102.359 28.5881 102.008 29.5513 101.702" stroke="#0D3451" stroke-width="0.5" stroke-miterlimit="10"/>
<path d="M23.0744 110.506C23.1162 110.667 23.293 110.772 23.4792 110.739C25.5637 110.417 36.9122 108.893 38.2103 108.853C41.2394 108.76 44.2405 108.2 47.1067 107.357C48.9074 106.829 52.7972 106.164 52.9415 104.213C53.0718 102.476 53.1974 100.739 53.3277 99.0015C55.4122 99.328 57.6549 99.062 59.437 98.0785C63.927 95.5995 62.5079 90.9076 61.1492 87.2718C60.0372 84.293 58.9996 81.2295 57.1803 78.5087C55.6774 76.2676 53.5929 74.2481 50.9081 73.1033C48.7445 72.1803 46.4879 71.8618 44.408 70.7372C43.5286 70.2616 42.5841 69.9028 41.6023 69.6207C41.2394 69.5159 40.7555 69.3063 40.3739 69.3022C39.3689 69.3022 37.9823 69.657 36.954 69.798C35.3906 70.0117 33.804 70.3543 32.3616 70.9226C29.7001 71.9626 27.5551 73.841 26.0243 75.9935C24.4051 78.2709 23.4326 80.8506 22.7021 83.4425C21.4226 87.9893 20.9573 92.6812 21.2411 97.3529C21.511 101.706 22.0135 106.241 23.0744 110.506Z" fill="#A5D7E8" stroke="#0D3451" stroke-width="0.5" stroke-miterlimit="10"/>
<path d="M2.69922 107.607C39.5643 99.1343 48.5445 120.937 39.2898 131.945" stroke="#0D3451" stroke-width="3" stroke-miterlimit="10"/>
<path d="M29.9933 83.9705C32.3942 85.1032 42.2305 93.3785 74.2333 96.1276C75.9456 94.1524 77.4252 92.2741 77.4112 89.6379C74.2472 89.2066 63.4432 87.0058 53.7139 83.2893C45.9202 80.3105 39.1177 76.1305 35.2278 72.7769" fill="#A5D7E8"/>
<path d="M29.9933 83.9705C32.3942 85.1032 42.2305 93.3785 74.2333 96.1276C75.9456 94.1524 77.4252 92.2741 77.4112 89.6379C74.2472 89.2066 63.4432 87.0058 53.7139 83.2893C45.9202 80.3105 39.1177 76.1305 35.2278 72.7769" stroke="#0D3451" stroke-width="0.5" stroke-miterlimit="10"/>
<path d="M62.2568 100.88C62.2242 100.88 62.187 100.88 62.1544 100.88Z" fill="#C98B77"/>
<path d="M62.2568 100.88C62.2242 100.88 62.187 100.88 62.1544 100.88" stroke="#0D3451" stroke-miterlimit="10"/>
<path d="M64.7321 103.423H32.7014C32.3105 103.423 31.9941 103.149 31.9941 102.81V102.721C31.9941 102.383 32.3105 102.109 32.7014 102.109H64.7321C65.123 102.109 65.4394 102.383 65.4394 102.721V102.81C65.444 103.145 65.123 103.423 64.7321 103.423Z" fill="black" stroke="#0D3451" stroke-miterlimit="10"/>
<path d="M65.5464 103.424H36.9635L39.4528 89.1946C39.5412 88.6988 40.0251 88.332 40.5835 88.332H66.9004C67.5797 88.332 68.0916 88.8641 67.9892 89.4607L65.5464 103.424Z" fill="black" stroke="#0D3451" stroke-miterlimit="10"/>
<path d="M54.9888 95.4385L56.2264 96.3333" stroke="#0D3451" stroke-miterlimit="10"/>
<path d="M53.3557 95.4385L54.598 96.3333" stroke="#0D3451" stroke-width="0.5" stroke-miterlimit="10"/>
<path d="M51.7272 95.4385L52.9695 96.3333" stroke="#0D3451" stroke-miterlimit="10"/>
<path d="M175.435 108.582C173.462 113.71 170.456 118.386 165.608 121.872C163.514 123.38 161.746 124.15 159.163 124.754C156.046 125.484 152.807 125.653 149.592 125.746C144.907 125.879 140.212 125.871 135.526 125.714C132.623 125.617 129.31 125.278 127.64 123.218C124.727 119.635 127.682 115.213 131.786 113.923C135.731 112.682 139.923 112.097 143.655 110.352C151.467 106.7 153.524 98.461 155.571 91.6287C157.06 86.6587 158.014 81.1969 162.146 77.2265C167.343 72.2323 175.556 73.2118 179.003 79.2339C183.489 87.0618 178.412 100.855 175.435 108.582Z" fill="#D89CC7" stroke="#0D3451" stroke-width="0.5" stroke-miterlimit="10"/>
<path d="M174.169 107.051C172.847 112.259 169.683 117.104 165.212 120.764" stroke="#0D3451" stroke-width="0.5" stroke-miterlimit="10"/>
<path d="M163.183 121.808C162.295 122.199 161.355 122.505 160.391 122.723" stroke="#0D3451" stroke-width="0.5" stroke-miterlimit="10"/>
<path d="M178.654 86.248C178.822 88.4207 178.663 90.6135 178.189 92.7538" stroke="#0D3451" stroke-width="0.5" stroke-miterlimit="10"/>
<path d="M168.776 75.2926C167.86 75.1757 166.915 75.4135 166.105 75.8005C165.291 76.1915 164.589 76.7235 163.895 77.2556" stroke="#0D3451" stroke-width="0.5" stroke-miterlimit="10"/>
<path d="M104.863 121.236C102.714 124.11 100.741 127.125 98.4284 130.039C97.7491 130.898 96.3485 132.337 97.0465 133.437C97.656 134.393 99.9499 135.195 101.462 135.041C101.778 135.009 102.062 134.937 102.286 134.812C103.002 134.425 103.477 133.784 103.989 133.203C105.873 131.059 108.488 129.491 111.084 128.004C112.066 127.439 113.057 126.879 114.025 126.291L114.737 122.699L104.863 121.236Z" fill="white" stroke="#0D3451" stroke-width="0.5" stroke-miterlimit="10"/>
<path d="M99.9593 132.913C99.373 132.586 98.7589 132.143 98.7682 131.546C98.7728 131.305 98.8798 131.075 98.9264 130.833C98.9729 130.595 98.9357 130.313 98.717 130.164C98.6007 130.083 98.4425 130.055 98.2936 130.051C97.5351 130.031 96.9442 130.599 96.2091 130.615C95.446 130.631 94.4875 130.256 93.743 130.067C92.4495 129.741 86.5077 127.274 86.0657 129.523C85.7539 131.091 89.9183 133.401 91.0536 134.102C92.5426 135.021 94.1152 135.823 95.767 136.496C96.7767 136.907 99.0334 138.411 100.131 137.887C100.364 137.774 100.527 137.585 100.685 137.403C101.192 136.807 101.676 136.194 102.207 135.613C102.551 135.235 103.021 134.9 103.254 134.457C102.225 133.904 101.062 133.509 100.024 132.945C99.9965 132.933 99.9779 132.921 99.9593 132.913Z" fill="black" stroke="#0D3451" stroke-miterlimit="10"/>
<path d="M160.396 100.944C156.762 103.548 149.476 102.206 145.209 101.593C135.326 100.166 123.601 92.3503 116.663 101.839C113.085 106.732 102.76 120.357 100.671 123.356C101.295 124.311 102.286 125.073 103.263 125.754C104.556 126.653 105.878 127.536 107.204 128.394C108.39 129.16 109.647 129.821 111.015 130.305C111.28 130.397 111.554 130.486 111.829 130.571C111.857 130.575 111.885 130.579 111.917 130.587C112.248 130.647 112.597 130.522 112.773 130.269C113.229 129.624 113.662 128.967 114.081 128.301C117.38 123.009 122.721 118.156 125.811 112.775C129.612 106.148 137.713 115.85 139.923 118.511C144.106 122.32 171.782 124.706 160.396 100.944Z" fill="black" stroke="#0D3451" stroke-width="0.5" stroke-miterlimit="10"/>
<path d="M126.783 154.333C125.867 155.191 123.708 155.876 122.298 155.663C120.046 155.324 120.53 153.127 120.507 151.624C120.442 147.42 120.804 143.208 121.595 139.056C122.2 135.867 123.592 132.123 128.347 132.715C129.952 132.913 131.413 133.928 131.888 135.275C132.172 136.077 132.116 136.935 132.023 137.766C131.66 140.926 131.036 140.604 129.901 143.59C129.329 145.09 127.393 153.756 126.783 154.333Z" fill="white" stroke="#0D3451" stroke-width="0.5" stroke-miterlimit="10"/>
<path d="M145.493 118.349C144.381 117.309 140.04 113.343 138.876 112.343C136.592 110.38 133.963 108.24 130.864 107.313C125.453 105.692 122.293 109.76 121.335 113.746C119.967 119.45 116.938 140.789 115.942 145.65C115.909 145.799 115.882 145.948 115.849 146.094C121.116 147.484 125.797 147.569 131.301 147.662C132.288 147.678 132.837 139.999 133.167 137.822C133.623 134.823 133.921 131.804 134.396 128.805C134.479 128.277 135.41 123.634 135.708 121.522C135.791 120.941 136.368 120.51 137.048 120.526C138.569 120.566 140.086 120.574 141.603 120.643C143.548 120.736 145.497 120.792 147.447 120.816" fill="black"/>
<path d="M145.493 118.349C144.381 117.309 140.04 113.343 138.876 112.343C136.592 110.38 133.963 108.24 130.864 107.313C125.453 105.692 122.293 109.76 121.335 113.746C119.967 119.45 116.938 140.789 115.942 145.65C115.909 145.799 115.882 145.948 115.849 146.094C121.116 147.484 125.797 147.569 131.301 147.662C132.288 147.678 132.837 139.999 133.167 137.822C133.623 134.823 133.921 131.804 134.396 128.805C134.479 128.277 135.41 123.634 135.708 121.522C135.791 120.941 136.368 120.51 137.048 120.526C138.569 120.566 140.086 120.574 141.603 120.643C143.548 120.736 145.497 120.792 147.447 120.816" stroke="#0D3451" stroke-width="0.5" stroke-miterlimit="10"/>
<path d="M116.715 104.097C117.822 104.097 118.93 104.097 120.032 104.097C126.035 104.097 132.032 104.097 138.034 104.097C141.673 104.097 145.312 104.097 148.946 104.097C150.648 104.097 152.351 104.097 154.05 104.097C154.804 104.097 155.692 104.226 156.423 104.085C157.298 103.915 158.005 103.311 158.931 103.291C159.247 103.283 159.559 103.351 159.871 103.395C161.346 103.625 162.9 103.444 164.249 102.888C164.603 102.742 164.952 102.565 165.263 102.355C165.701 102.065 166.078 101.706 166.324 101.283C166.724 100.598 166.757 99.7999 166.729 99.034C166.482 91.7906 162.532 84.2166 157.056 78.7951C154.59 76.3565 151.654 74.2846 148.401 72.7045C146.372 71.721 144.027 71.5719 141.743 71.592C139.347 71.6122 136.946 71.6323 134.554 71.7936C132.344 71.9427 130.366 71.4227 128.408 72.3337" fill="#0D3451"/>
<path d="M116.715 104.097C117.822 104.097 118.93 104.097 120.032 104.097C126.035 104.097 132.032 104.097 138.034 104.097C141.673 104.097 145.312 104.097 148.946 104.097C150.648 104.097 152.351 104.097 154.05 104.097C154.804 104.097 155.692 104.226 156.423 104.085C157.298 103.915 158.005 103.311 158.931 103.291C159.247 103.283 159.559 103.351 159.871 103.395C161.346 103.625 162.9 103.444 164.249 102.888C164.603 102.742 164.952 102.565 165.263 102.355C165.701 102.065 166.078 101.706 166.324 101.283C166.724 100.598 166.757 99.7999 166.729 99.034C166.482 91.7906 162.532 84.2166 157.056 78.7951C154.59 76.3565 151.654 74.2846 148.401 72.7045C146.372 71.721 144.027 71.5719 141.743 71.592C139.347 71.6122 136.946 71.6323 134.554 71.7936C132.344 71.9427 130.366 71.4227 128.408 72.3337" stroke="#0D3451" stroke-width="0.5" stroke-miterlimit="10"/>
<path d="M125.201 82.6484C124.569 86.1109 124.359 86.8607 124.28 90.3635Z" fill="#5F76E8"/>
<path d="M125.201 82.6484C124.569 86.1109 124.359 86.8607 124.28 90.3635" stroke="#0D3451" stroke-width="0.5" stroke-miterlimit="10"/>
<path d="M128.272 69.8988C128.775 70.3584 128.803 71.2975 128.593 71.8578C128.528 72.0392 128.407 72.2246 128.244 72.3496C128.91 72.7849 129.64 73.1517 130.445 73.3613C131.446 73.6233 132.548 73.6395 133.567 73.45C135.042 73.1759 136.699 72.7164 137.718 71.7369C136.987 71.7127 136.061 71.0839 135.661 70.5438C135.224 69.9553 135.075 69.2378 135.028 68.5364C134.824 65.4448 135.726 61.4018 132.069 59.5315C131.264 59.1204 130.403 58.7495 129.491 58.5399C128.528 58.3182 127.905 58.3222 127.007 58.6729C126.183 58.9914 125.499 58.9631 124.801 59.5355C123.624 60.5029 123.387 61.7968 123.55 63.1431C123.754 64.8321 124.089 66.7911 125.201 68.2301C125.56 68.6896 126.044 69.0927 126.639 69.2902C127.17 69.4635 127.863 69.524 128.272 69.8988Z" fill="white" stroke="#0D3451" stroke-width="0.5" stroke-miterlimit="10"/>
<path d="M124.964 61.6759C125.262 61.4663 125.56 61.2527 125.904 61.1076C126.22 60.9746 126.867 60.8617 127.17 61.0834C127.416 61.2648 127.314 61.4421 127.337 61.688C127.407 62.4136 127.956 62.7038 128.738 62.2806C129.124 62.071 129.575 61.7969 129.998 61.95C130.617 62.1758 130.324 62.7361 130.478 63.1432C130.687 63.7075 131.185 64.3605 131.613 64.82C132.209 65.4569 132.888 66.2026 133.73 66.6097C136.34 67.8754 135.838 64.3041 136.364 63.256C136.513 62.9577 136.703 62.6635 136.741 62.341C136.824 61.6034 136.126 61.035 135.442 60.5392C135.331 60.4586 135.224 60.382 135.117 60.3055C135.019 60.2369 134.921 60.1603 134.879 60.0555C134.763 59.7774 135.307 59.1768 135.331 58.814C135.368 58.1812 134.898 57.4718 134.363 57.0727C133.623 56.5205 132.539 56.3391 131.618 56.6092C131.213 56.7301 130.78 56.9276 130.389 56.7785C129.822 56.5608 129.933 55.9642 129.454 55.6498C129.026 55.3757 128.384 55.3112 127.937 55.5853C127.733 55.7143 127.57 55.8917 127.351 56.0005C126.858 56.2464 126.239 56.0771 125.671 56.1053C125.052 56.1335 124.452 56.4157 124.094 56.851C123.819 57.1856 123.671 57.6048 123.308 57.8708C122.917 58.157 122.368 58.2054 121.898 58.3787C120.679 58.8302 120.144 60.2732 120.781 61.2769C121.423 62.2806 123.066 62.6675 124.229 62.1153C124.494 62.0065 124.731 61.8412 124.964 61.6759Z" fill="black" stroke="#0D3451" stroke-miterlimit="10"/>
<path d="M129.929 64.0181C130.04 63.7561 130.171 63.4981 130.38 63.2845C131.138 62.5227 132.641 62.7847 133.27 63.5344C133.567 63.8891 133.73 64.3446 133.674 64.8162C133.618 65.316 133.27 65.7957 132.748 66.0174" fill="white"/>
<path d="M129.929 64.0181C130.04 63.7561 130.171 63.4981 130.38 63.2845C131.138 62.5227 132.641 62.7847 133.27 63.5344C133.567 63.8891 133.73 64.3446 133.674 64.8162C133.618 65.316 133.27 65.7957 132.748 66.0174" stroke="#0D3451" stroke-width="0.5" stroke-miterlimit="10"/>
<path d="M142.292 104.21C137.732 104.48 132.707 104.77 128.412 103.464C129.277 102.444 130.222 101.392 131.422 100.654C132.618 99.9207 133.86 99.8764 135.284 99.9933C135.908 100.042 136.531 100.074 137.155 100.082C140.444 100.126 143.739 99.6063 146.796 98.5502C149.89 97.4821 153.286 96.825 156.623 96.6074C158.628 96.4784 160.675 96.5429 162.643 96.9258C164.346 97.2563 166.119 98.0222 166.892 99.4531C167.282 100.183 167.348 101.001 167.199 101.787C167.11 102.255 166.715 103.665 165.984 103.665C165.593 103.875 165.137 103.96 164.686 104.036C161.117 104.673 157.265 104.173 153.621 104.068C149.834 103.964 146.07 103.984 142.292 104.21Z" fill="white" stroke="#0D3451" stroke-width="0.5" stroke-miterlimit="10"/>
<path d="M126.09 67.319C126.69 67.2787 127.272 67.057 127.714 66.6982" stroke="#0D3451" stroke-miterlimit="10"/>
<mask id="mask0_1_405" style="mask-type:luminance" maskUnits="userSpaceOnUse" x="123" y="58" width="15" height="15">
<path d="M132.069 59.5313C137.746 62.4376 132.404 69.8019 137.141 71.9342C134.396 72.7565 131.385 72.9097 128.542 72.3736C128.663 72.3978 128.635 70.8016 128.626 70.6968C128.533 69.5923 127.607 69.6084 126.644 69.294C126.048 69.0965 125.56 68.6934 125.206 68.2339C124.089 66.7949 123.759 64.8359 123.554 63.147C123.391 61.8047 123.629 60.5108 124.806 59.5394C125.499 58.967 126.188 58.9952 127.011 58.6768C127.909 58.3301 128.528 58.3261 129.496 58.5438C130.399 58.7493 131.26 59.1202 132.069 59.5313Z" fill="white"/>
</mask>
<g mask="url(#mask0_1_405)">
<path d="M127.7 69.7452C127.691 69.721 127.686 69.6888 127.672 69.6646C128.584 69.592 129.556 69.4106 130.315 69.0156C129.961 69.5961 128.9 70.4708 128.091 71.1157C128.081 70.9424 128.026 70.1644 127.7 69.7452Z" fill="black" stroke="#0D3451" stroke-miterlimit="10"/>
</g>
<path d="M132.069 59.5313C137.746 62.4376 132.404 69.8019 137.141 71.9342C134.396 72.7565 131.385 72.9097 128.542 72.3736C128.663 72.3978 128.635 70.8016 128.626 70.6968C128.533 69.5923 127.607 69.6084 126.644 69.294C126.048 69.0965 125.56 68.6934 125.206 68.2339C124.089 66.7949 123.759 64.8359 123.554 63.147C123.391 61.8047 123.629 60.5108 124.806 59.5394C125.499 58.967 126.188 58.9952 127.011 58.6768C127.909 58.3301 128.528 58.3261 129.496 58.5438C130.399 58.7493 131.26 59.1202 132.069 59.5313Z" stroke="#0D3451" stroke-miterlimit="10"/>
<path d="M132.953 64.3041C132.632 63.7519 131.813 63.4617 131.139 63.6632C130.859 63.7438 130.594 63.9212 130.534 64.1711" stroke="#0D3451" stroke-width="0.5" stroke-miterlimit="10"/>
<path d="M131.52 63.6387C131.976 63.812 132.209 64.332 132.004 64.727" stroke="#0D3451" stroke-width="0.5" stroke-miterlimit="10"/>
<path d="M178.147 101.082C158.088 93.6327 132.469 109.857 143.036 126.5" stroke="#0D3451" stroke-width="3" stroke-miterlimit="10"/>
<path d="M171.461 103.354H10.3392V104.592H171.461V103.354Z" fill="white" stroke="#0D3451" stroke-width="0.5" stroke-miterlimit="10"/>
<path d="M106.841 103.347H140.175C140.612 103.347 140.971 103.041 140.971 102.658C140.971 102.279 140.617 101.969 140.175 101.969H106.841C106.404 101.969 106.046 102.275 106.046 102.658C106.05 103.037 106.404 103.347 106.841 103.347Z" fill="black" stroke="#0D3451" stroke-miterlimit="10"/>
<path d="M105.938 103.347H135.782L133.186 88.4936C133.097 87.9777 132.59 87.5947 132.004 87.5947H104.528C103.821 87.5947 103.286 88.147 103.393 88.7717L105.938 103.347Z" fill="black" stroke="#0D3451" stroke-miterlimit="10"/>
<path d="M116.71 94.4064C116.71 95.0917 117.347 95.6439 118.138 95.6439C118.929 95.6439 119.567 95.0917 119.567 94.4064C119.567 93.7212 118.929 93.1689 118.138 93.1689C117.352 93.1689 116.71 93.7252 116.71 94.4064Z" fill="#222221" stroke="#0D3451" stroke-width="0.5" stroke-miterlimit="10"/>
<path d="M46.823 69.58C46.474 69.9025 46.3623 70.4587 46.3484 70.882C46.3391 71.1198 46.3623 71.3818 46.4973 71.5954C46.6183 71.7929 46.9347 72.0267 47.2092 71.9904C46.2321 72.9578 44.6315 73.3408 43.1658 73.1674C41.6955 72.9941 40.3554 72.325 39.2341 71.4866C38.9409 71.2689 38.6618 71.0392 38.4338 70.7691C38.1406 70.4265 37.9359 70.0274 37.7405 69.6364C37.7963 69.7493 38.4943 69.7211 38.6292 69.6888C38.9363 69.6163 39.1224 69.4228 39.2899 69.2011C39.6342 68.7537 39.7924 68.2176 39.9134 67.6895C40.6113 64.7389 39.3969 61.0709 43.0262 59.2126C43.8312 58.8015 44.6919 58.4307 45.6039 58.2211C46.5671 57.9994 47.1906 58.0034 48.0886 58.3541C48.9121 58.6725 49.5961 58.6443 50.2941 59.2167C51.4713 60.1841 51.7086 61.478 51.5457 62.8243C51.341 64.5132 51.006 66.4722 49.8939 67.9112C49.5356 68.3707 49.0517 68.7738 48.4562 68.9713C47.9257 69.1447 47.2324 69.2051 46.823 69.58Z" fill="white" stroke="#0D3451" stroke-width="0.5" stroke-miterlimit="10"/>
<path d="M43.4823 64.5011C42.9658 65.0573 42.4447 65.6338 41.7746 66.061C41.3419 66.3351 40.4299 66.8349 39.8995 66.4923C39.4761 66.2182 39.6483 64.8639 39.6296 64.4487C39.5971 63.5982 39.6203 62.7436 39.7367 61.8972C39.839 61.1716 40.0158 60.446 40.3741 59.789C40.7324 59.128 41.2907 58.5354 42.0306 58.1807C42.7285 57.8461 43.4404 57.826 44.2128 57.7534C45.1852 57.6648 46.1577 57.5962 47.1348 57.6406C48.2887 57.693 49.4427 57.8945 50.5873 57.7575C51.1596 57.6889 51.7226 57.5317 52.2996 57.5116C52.8765 57.4914 53.5093 57.6365 53.849 58.0437C54.2119 58.483 54.1375 59.0836 53.9839 59.6076C53.8397 60.0994 53.6396 60.5831 53.3046 61.0023C53.0021 61.3772 52.388 61.8972 51.8482 62.0141C51.3085 62.1309 50.4803 61.7279 49.9591 61.5827C49.6427 61.4941 49.4008 61.2764 49.0658 61.224C48.8052 61.1837 48.5307 61.2522 48.3027 61.3731C47.5908 61.748 47.2884 62.4776 46.3531 61.9697C45.9669 61.7601 45.5156 61.486 45.0922 61.6392C44.4733 61.8649 44.7665 62.4252 44.6129 62.8323C44.4082 63.3926 43.9103 64.0416 43.4823 64.5011Z" fill="black" stroke="#0D3451" stroke-miterlimit="10"/>
<path d="M45.1664 63.6992C45.0547 63.4372 44.9244 63.1793 44.7151 62.9656C43.9566 62.2038 42.4537 62.4658 41.8256 63.2155C41.5278 63.5703 41.3649 64.0257 41.4208 64.4974C41.5185 65.368 42.5189 66.0492 43.5193 65.7389C43.6728 65.6905 43.8357 65.6058 43.8822 65.4688" fill="white"/>
<path d="M45.1664 63.6992C45.0547 63.4372 44.9244 63.1793 44.7151 62.9656C43.9566 62.2038 42.4537 62.4658 41.8256 63.2155C41.5278 63.5703 41.3649 64.0257 41.4208 64.4974C41.5185 65.368 42.5189 66.0492 43.5193 65.7389C43.6728 65.6905 43.8357 65.6058 43.8822 65.4688" stroke="#0D3451" stroke-width="0.5" stroke-miterlimit="10"/>
<path d="M49.0052 67.0006C48.405 66.9603 47.8234 66.7386 47.3813 66.3799" stroke="#0D3451" stroke-miterlimit="10"/>
<mask id="mask1_1_405" style="mask-type:luminance" maskUnits="userSpaceOnUse" x="37" y="58" width="15" height="15">
<path d="M43.0263 59.213C37.3497 62.1192 42.6913 69.4836 37.9546 71.6159C40.6998 72.4382 43.7103 72.5913 46.5532 72.0552C46.4322 72.0794 46.4601 70.4832 46.4694 70.3784C46.5625 69.274 47.4884 69.2901 48.4516 68.9757C49.0472 68.7782 49.5357 68.3751 49.8893 67.9156C51.006 66.4766 51.3364 64.5176 51.5411 62.8286C51.704 61.4864 51.4667 60.1925 50.2895 59.221C49.5962 58.6486 48.9076 58.6769 48.084 58.3584C47.186 58.0118 46.5672 58.0077 45.5993 58.2254C44.6967 58.431 43.8359 58.8018 43.0263 59.213Z" fill="white"/>
</mask>
<g mask="url(#mask1_1_405)">
<path d="M47.3953 69.4269C47.4046 69.4027 47.4093 69.3704 47.4233 69.3462C46.5113 69.2737 45.5388 69.0923 44.7804 68.6973C45.134 69.2777 46.1949 70.1524 47.0045 70.7973C47.0138 70.624 47.0696 69.8461 47.3953 69.4269Z" fill="black" stroke="#0D3451" stroke-miterlimit="10"/>
</g>
<path d="M43.0263 59.213C37.3497 62.1192 42.6913 69.4836 37.9546 71.6159C40.6998 72.4382 43.7103 72.5913 46.5532 72.0552C46.4322 72.0794 46.4601 70.4832 46.4694 70.3784C46.5625 69.274 47.4884 69.2901 48.4516 68.9757C49.0472 68.7782 49.5357 68.3751 49.8893 67.9156C51.006 66.4766 51.3364 64.5176 51.5411 62.8286C51.704 61.4864 51.4667 60.1925 50.2895 59.221C49.5962 58.6486 48.9076 58.6769 48.084 58.3584C47.186 58.0118 46.5672 58.0077 45.5993 58.2254C44.6967 58.431 43.8359 58.8018 43.0263 59.213Z" stroke="#0D3451" stroke-miterlimit="10"/>
<path d="M42.9052 63.3287C43.2495 63.2723 43.6264 63.3811 43.8683 63.5988C44.1103 63.8205 44.2126 64.151 44.1335 64.4453" stroke="#0D3451" stroke-width="0.5" stroke-miterlimit="10"/>
<path d="M146.507 83.2612C150.923 87.3848 152.924 91.4197 155.18 96.692Z" fill="#5F76E8"/>
<path d="M146.507 83.2612C150.923 87.3848 152.924 91.4197 155.18 96.692" stroke="#0D3451" stroke-width="0.5" stroke-miterlimit="10"/>
<path d="M52.1179 78.7866C52.774 80.2014 53.1881 81.7009 53.3463 83.2165Z" fill="#95CFB6"/>
<path d="M52.1179 78.7866C52.774 80.2014 53.1881 81.7009 53.3463 83.2165" stroke="#0D3451" stroke-width="0.5" stroke-miterlimit="10"/>
<path d="M69.3151 117.023C70.3434 117.886 71.1902 118.906 71.8044 120.022Z" fill="#5F76E8"/>
<path d="M69.3151 117.023C70.3434 117.886 71.1902 118.906 71.8044 120.022" stroke="#0D3451" stroke-width="0.5" stroke-miterlimit="10"/>
<path d="M72.2836 121.32C72.6465 121.893 72.9769 122.477 73.2653 123.078Z" fill="#5F76E8"/>
<path d="M72.2836 121.32C72.6465 121.893 72.9769 122.477 73.2653 123.078" stroke="#0D3451" stroke-width="0.5" stroke-miterlimit="10"/>
<path d="M78.9002 116.326C78.9235 117.668 78.9049 119.014 78.8397 120.357Z" fill="#5F76E8"/>
<path d="M78.9002 116.326C78.9235 117.668 78.9049 119.014 78.8397 120.357" stroke="#0D3451" stroke-width="0.5" stroke-miterlimit="10"/>
<path d="M55.9519 124.972C56.3567 124.762 56.7848 124.589 57.2268 124.452Z" fill="#5F76E8"/>
<path d="M55.9519 124.972C56.3567 124.762 56.7848 124.589 57.2268 124.452" stroke="#0D3451" stroke-width="0.5" stroke-miterlimit="10"/>
<path d="M27.7042 121.131C27.9648 121.687 28.3324 122.215 28.8581 122.61C29.3793 123.005 30.0679 123.255 30.7612 123.223" fill="#5F76E8"/>
<path d="M27.7042 121.131C27.9648 121.687 28.3324 122.215 28.8581 122.61C29.3793 123.005 30.0679 123.255 30.7612 123.223" stroke="#0D3451" stroke-width="0.5" stroke-miterlimit="10"/>
<path d="M31.8684 123.473C32.3384 123.565 32.8316 123.586 33.3108 123.533Z" fill="#5F76E8"/>
<path d="M31.8684 123.473C32.3384 123.565 32.8316 123.586 33.3108 123.533" stroke="#0D3451" stroke-width="0.5" stroke-miterlimit="10"/>
<path d="M23.8097 85.7397C23.498 87.3158 23.2793 88.908 23.1583 90.5082Z" fill="white"/>
<path d="M23.8097 85.7397C23.498 87.3158 23.2793 88.908 23.1583 90.5082" stroke="#0D3451" stroke-width="0.5" stroke-miterlimit="10"/>
<path d="M23.093 92.1528C23.1163 92.5519 23.1349 92.9469 23.1582 93.346Z" fill="white"/>
<path d="M23.093 92.1528C23.1163 92.5519 23.1349 92.9469 23.1582 93.346" stroke="#0D3451" stroke-width="0.5" stroke-miterlimit="10"/>
<path d="M34.3159 86.4774C33.0689 85.8123 31.5846 84.9698 30.4447 84.1838L30.1748 84.0347C30.5284 84.6232 30.6215 85.3004 30.9007 85.9171C31.1798 86.5338 31.7475 87.1425 32.5152 87.1707C33.1806 87.1989 33.7017 87.219 34.2322 87.6382C34.4788 87.8317 34.6835 88.0655 34.9534 88.2348C35.3349 88.4807 35.8653 88.5895 36.3353 88.5049C36.8006 88.4202 37.0844 87.9204 37.6009 88.0252C36.2236 87.5294 35.5675 87.1465 34.3159 86.4774Z" fill="black" stroke="#0D3451" stroke-miterlimit="10"/>
<path d="M149.88 88.4973C150.113 88.719 150.406 88.8923 150.588 89.1422C150.811 89.4526 150.839 89.8395 150.797 90.2023C150.741 90.6457 150.62 91.1657 150.993 91.472C151.346 91.7663 152.002 91.6977 152.281 92.0484C152.463 92.2782 152.416 92.6047 152.607 92.8264C152.821 93.0723 153.24 93.0844 153.594 93.0723C153.459 92.7498 153.286 92.4435 153.119 92.1331C152.682 91.339 152.253 90.5409 151.807 89.7509C151.663 89.4929 151.565 89.1906 151.402 88.9447C151.207 88.6545 150.937 88.4368 150.765 88.1184C150.481 87.5984 150.164 87.0744 149.68 86.6834C149.653 86.6632 149.62 86.639 149.583 86.6471C149.55 86.6552 149.532 86.6793 149.518 86.7035C149.136 87.2961 149.359 88.0015 149.88 88.4973Z" fill="black" stroke="#0D3451" stroke-miterlimit="10"/>
<path d="M105.813 128.435C106.106 128.737 106.157 129.16 106.301 129.535C106.446 129.91 106.79 130.305 107.246 130.273C107.497 130.256 107.711 130.111 107.907 129.974C108.265 129.724 108.628 129.47 108.991 129.217C108.353 129.063 107.8 128.721 107.264 128.386C106.795 128.092 106.348 127.765 105.883 127.471C105.329 127.12 104.84 126.625 104.296 126.318C104.37 126.947 104.189 127.237 104.743 127.705C105.059 127.979 105.524 128.14 105.813 128.435Z" fill="black" stroke="#0D3451" stroke-miterlimit="10"/>
<path d="M91.7098 128.785C91.4493 129.382 91.3143 130.019 91.3097 130.659C91.3097 130.825 91.3748 131.038 91.5609 131.042C91.654 131.042 91.7331 130.986 91.7982 130.934C92.3938 130.458 92.9382 129.938 93.4268 129.378C93.6548 129.607 93.678 129.938 93.6641 130.24C93.6501 130.543 93.6082 130.861 93.7432 131.139C93.8781 131.421 94.2643 131.639 94.5807 131.51C94.7854 131.425 94.8878 131.232 94.9762 131.055C95.2228 130.551 95.4554 130.043 95.6695 129.531" stroke="#0D3451" stroke-miterlimit="10"/>
<path d="M70.1482 63.7878L70.0319 77.7225L74.4847 77.7507L74.6057 63.7878H70.1482Z" fill="#A5D7E8" stroke="#0D3451" stroke-width="0.5" stroke-miterlimit="10"/>
<path d="M80.1541 56.4075L79.9706 77.7871L84.4281 77.8158L84.6115 56.4362L80.1541 56.4075Z" fill="#D89CC7" stroke="#0D3451" stroke-width="0.5" stroke-miterlimit="10"/>
<path d="M90.0755 58.8477L89.9125 77.8491L94.37 77.8778L94.533 58.8764L90.0755 58.8477Z" fill="#A5D7E8" stroke="#0D3451" stroke-width="0.5" stroke-miterlimit="10"/>
<path d="M99.2243 68.1097L99.1403 77.9087L103.598 77.9374L103.682 68.1384L99.2243 68.1097Z" fill="#D89CC7" stroke="#0D3451" stroke-width="0.5" stroke-miterlimit="10"/>
<path d="M66.3141 77.7307L105.496 78.025" stroke="#0D3451" stroke-width="0.75" stroke-miterlimit="10"/>
<path d="M83.7673 57.7617V63.6387" stroke="#0D3451" stroke-width="0.5" stroke-miterlimit="10"/>
<path d="M83.5764 64.5176C83.6416 65.3076 83.6462 66.0977 83.5811 66.8877" stroke="#0D3451" stroke-width="0.5" stroke-miterlimit="10"/>
<path d="M73.5402 67.4121C73.5727 68.4642 73.61 69.5162 73.6425 70.5723" stroke="#0D3451" stroke-width="0.5" stroke-miterlimit="10"/>
<path d="M103.026 70.7446V73.2034" stroke="#0D3451" stroke-width="0.5" stroke-miterlimit="10"/>
<path d="M102.923 74.606V75.7628" stroke="#0D3451" stroke-width="0.5" stroke-miterlimit="10"/>
<path d="M93.7058 68.8184V72.5026" stroke="#0D3451" stroke-width="0.5" stroke-miterlimit="10"/>
<path d="M92.8962 67.6777C92.8962 68.0284 92.8962 68.3791 92.8962 68.7298" stroke="#0D3451" stroke-width="0.5" stroke-miterlimit="10"/>
<path d="M93.6035 66.0977C93.6035 66.4483 93.6035 66.799 93.6035 67.1497" stroke="#0D3451" stroke-width="0.5" stroke-miterlimit="10"/>
<path d="M154.259 22.1492C154.934 19.6569 153.15 17.1621 150.273 16.5769C147.396 15.9916 144.516 17.5376 143.84 20.0298C143.165 22.5221 144.949 25.0169 147.826 25.6022C150.703 26.1874 153.583 24.6414 154.259 22.1492Z" fill="white" stroke="#0D3451" stroke-width="0.5" stroke-miterlimit="10"/>
<path d="M148.741 23.6442C148.713 23.6483 148.689 23.6523 148.676 23.6523C148.662 23.6523 148.643 23.6523 148.624 23.6523C148.452 23.6523 148.299 23.6483 148.159 23.6362C148.019 23.6281 147.894 23.612 147.773 23.5918C147.652 23.5717 147.54 23.5475 147.429 23.5193C147.317 23.4911 147.205 23.4588 147.089 23.4266C147.098 23.3218 147.121 23.2129 147.159 23.1081C147.196 22.9993 147.233 22.8945 147.28 22.7937C147.466 22.8461 147.661 22.8945 147.861 22.9348C148.061 22.9751 148.303 22.9953 148.582 22.9953C149.038 22.9953 149.373 22.9187 149.597 22.7655C149.82 22.6123 149.927 22.4027 149.927 22.1327C149.927 21.9997 149.904 21.8868 149.857 21.7941C149.811 21.7014 149.741 21.6248 149.643 21.5563C149.55 21.4877 149.429 21.4273 149.285 21.3708C149.141 21.3144 148.973 21.2539 148.778 21.1814L148.378 21.0363C148.21 20.9799 148.061 20.9154 147.922 20.8428C147.782 20.7702 147.661 20.6856 147.559 20.5889C147.456 20.4921 147.377 20.3752 147.322 20.2382C147.266 20.1052 147.238 19.9439 147.238 19.7545C147.238 19.3836 147.368 19.0813 147.624 18.8475C147.88 18.6137 148.252 18.4646 148.731 18.4082V17.7108C148.815 17.6907 148.908 17.6826 149.015 17.6826C149.127 17.6826 149.225 17.6907 149.313 17.7108V18.38C149.546 18.388 149.774 18.4122 149.997 18.4444C150.22 18.4767 150.416 18.521 150.574 18.5734C150.546 18.775 150.486 18.9725 150.392 19.17C150.244 19.1216 150.071 19.0813 149.876 19.045C149.681 19.0088 149.457 18.9926 149.201 18.9926C148.852 18.9926 148.582 19.0491 148.396 19.166C148.21 19.2829 148.113 19.4602 148.113 19.698C148.113 19.8149 148.136 19.9117 148.187 19.9963C148.238 20.081 148.308 20.1535 148.406 20.218C148.503 20.2825 148.62 20.343 148.755 20.3954C148.89 20.4478 149.043 20.5042 149.215 20.5687L149.532 20.6856C149.732 20.7582 149.909 20.8307 150.071 20.9073C150.23 20.9839 150.369 21.0766 150.481 21.1814C150.593 21.2862 150.681 21.4112 150.746 21.5563C150.811 21.7014 150.844 21.8747 150.844 22.0803C150.844 22.4874 150.709 22.8219 150.439 23.0759C150.169 23.3339 149.792 23.5032 149.304 23.5838V24.4101C149.257 24.4182 149.211 24.4262 149.164 24.4303C149.113 24.4343 149.066 24.4383 149.024 24.4383C148.973 24.4383 148.927 24.4343 148.876 24.4303C148.824 24.4262 148.778 24.4182 148.727 24.4101V23.6442H148.741Z" fill="black" stroke="#0D3451" stroke-miterlimit="10"/>
<path d="M22.1474 66.701C25.0961 65.6428 26.4963 62.7142 25.2749 60.1597C24.0535 57.6052 20.6729 56.3922 17.7242 57.4503C14.7754 58.5084 13.3752 61.437 14.5966 63.9915C15.818 66.546 19.1986 67.7591 22.1474 66.701Z" fill="white" stroke="#0D3451" stroke-width="0.5" stroke-miterlimit="10"/>
<path d="M19.5986 64.8358C19.5707 64.8399 19.5428 64.8439 19.5288 64.8439C19.5102 64.8439 19.4916 64.8439 19.473 64.8439C19.2869 64.8439 19.1194 64.8399 18.9705 64.8278C18.8216 64.8157 18.682 64.8036 18.5517 64.7794C18.4214 64.7592 18.3004 64.731 18.1795 64.7028C18.0585 64.6706 17.9375 64.6383 17.8119 64.602C17.8258 64.4892 17.8491 64.3723 17.8863 64.2554C17.9236 64.1385 17.9701 64.0256 18.0166 63.9168C18.2213 63.9732 18.4307 64.0256 18.6448 64.07C18.8588 64.1143 19.1194 64.1345 19.4265 64.1345C19.915 64.1345 20.2826 64.0498 20.5199 63.8846C20.7572 63.7193 20.8782 63.4895 20.8782 63.1993C20.8782 63.0542 20.8549 62.9333 20.8037 62.8325C20.7525 62.7358 20.6781 62.6471 20.5757 62.5745C20.4734 62.502 20.3477 62.4375 20.1895 62.377C20.036 62.3165 19.8499 62.248 19.6405 62.1714L19.2124 62.0142C19.031 61.9538 18.8681 61.8812 18.7192 61.8046C18.5703 61.728 18.44 61.6353 18.3284 61.5305C18.2167 61.4257 18.1329 61.3008 18.0725 61.1557C18.012 61.0106 17.984 60.8372 17.984 60.6357C17.984 60.2366 18.1236 59.9101 18.4028 59.6562C18.682 59.4022 19.0775 59.245 19.5986 59.1806V58.4268C19.687 58.4066 19.7894 58.3945 19.9057 58.3945C20.0267 58.3945 20.1337 58.4066 20.2268 58.4268V59.1483C20.478 59.1604 20.7246 59.1806 20.9666 59.2168C21.2085 59.2531 21.4179 59.3015 21.5901 59.3579C21.5621 59.5756 21.4924 59.7892 21.3946 60.0028C21.2318 59.9504 21.0457 59.9061 20.8409 59.8658C20.6316 59.8255 20.3896 59.8094 20.1151 59.8094C19.7382 59.8094 19.4497 59.8698 19.245 59.9948C19.0403 60.1197 18.9426 60.3092 18.9426 60.5712C18.9426 60.6961 18.9705 60.801 19.0217 60.8937C19.0775 60.9823 19.1566 61.063 19.2589 61.1355C19.3613 61.204 19.4869 61.2685 19.6358 61.325C19.7801 61.3814 19.9476 61.4459 20.1337 61.5104L20.4734 61.6353C20.6874 61.7119 20.8828 61.7925 21.055 61.8772C21.2271 61.9618 21.376 62.0586 21.497 62.1714C21.618 62.2843 21.7157 62.4214 21.7855 62.5745C21.8553 62.7317 21.8879 62.9171 21.8879 63.1429C21.8879 63.5822 21.7436 63.941 21.4551 64.2191C21.1666 64.4972 20.7572 64.6786 20.2314 64.7673V65.6622C20.1849 65.6742 20.1337 65.6823 20.0779 65.6863C20.022 65.6904 19.9755 65.6944 19.9243 65.6944C19.8685 65.6944 19.8173 65.6904 19.7615 65.6863C19.7056 65.6823 19.6544 65.6742 19.5986 65.6622V64.8358Z" fill="black" stroke="#0D3451" stroke-miterlimit="10"/>
<path d="M180.842 65.1126C181.482 62.7229 179.764 60.3364 177.005 59.7822C174.247 59.228 171.492 60.716 170.852 63.1057C170.213 65.4954 171.93 67.8819 174.689 68.4361C177.447 68.9903 180.202 67.5023 180.842 65.1126Z" fill="white" stroke="#0D3451" stroke-width="0.5" stroke-miterlimit="10"/>
<path d="M175.551 66.5523C175.523 66.5563 175.504 66.5603 175.486 66.5603C175.472 66.5603 175.453 66.5603 175.439 66.5603C175.276 66.5603 175.127 66.5563 174.993 66.5483C174.858 66.5402 174.737 66.5241 174.62 66.5079C174.504 66.4878 174.397 66.4676 174.29 66.4394C174.183 66.4112 174.076 66.383 173.964 66.3507C173.974 66.25 173.997 66.1492 174.034 66.0444C174.067 65.9396 174.108 65.8429 174.15 65.7461C174.332 65.7985 174.518 65.8429 174.709 65.8791C174.899 65.9194 175.132 65.9396 175.402 65.9396C175.839 65.9396 176.16 65.867 176.374 65.7179C176.588 65.5728 176.691 65.3672 176.691 65.1092C176.691 64.9802 176.668 64.8714 176.621 64.7868C176.575 64.6981 176.509 64.6255 176.416 64.561C176.328 64.4965 176.212 64.4361 176.072 64.3837C175.932 64.3313 175.774 64.2708 175.588 64.2023L175.207 64.0652C175.048 64.0088 174.899 63.9484 174.769 63.8798C174.634 63.8113 174.523 63.7307 174.425 63.6339C174.327 63.5412 174.253 63.4284 174.197 63.2994C174.146 63.1704 174.118 63.0172 174.118 62.8358C174.118 62.4811 174.243 62.1909 174.49 61.9652C174.737 61.7394 175.09 61.5984 175.551 61.546V60.8768C175.63 60.8567 175.718 60.8486 175.821 60.8486C175.928 60.8486 176.021 60.8567 176.109 60.8768V61.5177C176.333 61.5258 176.551 61.546 176.765 61.5782C176.979 61.6105 177.165 61.6508 177.319 61.7032C177.291 61.8967 177.235 62.0861 177.142 62.2756C176.998 62.2312 176.835 62.1909 176.649 62.1546C176.463 62.1183 176.249 62.1022 176.002 62.1022C175.667 62.1022 175.411 62.1587 175.23 62.2675C175.048 62.3763 174.96 62.5496 174.96 62.7794C174.96 62.8882 174.983 62.985 175.03 63.0656C175.076 63.1462 175.146 63.2188 175.239 63.2792C175.332 63.3397 175.444 63.3961 175.574 63.4485C175.704 63.5009 175.853 63.5533 176.016 63.6138L176.319 63.7226C176.509 63.7911 176.682 63.8637 176.835 63.9363C176.989 64.0088 177.119 64.0975 177.231 64.1983C177.338 64.299 177.426 64.42 177.487 64.557C177.547 64.6941 177.58 64.8634 177.58 65.0609C177.58 65.4519 177.449 65.7703 177.193 66.0162C176.937 66.2621 176.575 66.4233 176.105 66.5039V67.298C176.063 67.3061 176.016 67.3141 175.97 67.3181C175.923 67.3222 175.877 67.3262 175.835 67.3262C175.788 67.3262 175.737 67.3222 175.69 67.3181C175.644 67.3141 175.593 67.3061 175.546 67.298V66.5523H175.551Z" fill="black" stroke="#0D3451" stroke-miterlimit="10"/>
<path d="M66.9376 11.1167H44.0824V23.5761H66.9376V11.1167Z" fill="black" stroke="#0D3451" stroke-miterlimit="10"/>
<path d="M64.3179 9.30664H41.4628V21.766H64.3179V9.30664Z" fill="#A5D7E8" stroke="#0D3451" stroke-width="0.5" stroke-miterlimit="10"/>
<path d="M64.3179 9.30664C64.3179 9.30664 53.7232 14.9458 52.8903 15.5383L41.4628 9.30664" stroke="#0D3451" stroke-width="0.5" stroke-miterlimit="10"/>
<path d="M63.2897 17.0259C63.392 18.0699 63.3967 19.1219 63.299 20.1699" stroke="#0D3451" stroke-width="0.5" stroke-miterlimit="10"/>
<path d="M63.2526 16.4049C63.2712 16.0179 63.2851 15.635 63.3037 15.248" stroke="#0D3451" stroke-width="0.5" stroke-miterlimit="10"/>
<path d="M62.6243 16.1587C62.6243 16.4328 62.6243 16.7109 62.6243 16.985" stroke="#0D3451" stroke-width="0.5" stroke-miterlimit="10"/>
<path d="M53.2717 14.5429C53.2717 14.5429 54.8816 13.6641 55.4214 13.3457" stroke="#0D3451" stroke-width="0.5" stroke-miterlimit="10"/>
<path d="M56.0776 12.922C56.3056 12.7688 56.5476 12.6358 56.8035 12.5229" stroke="#0D3451" stroke-width="0.5" stroke-miterlimit="10"/>
<path d="M159.666 35.1162C164.509 35.1203 169.348 35.8781 173.843 37.4219C176.784 38.4296 180.553 40.3765 180.553 43.5165C180.553 46.2615 177.477 48.1439 174.941 49.2363C173.001 50.0747 170.912 50.6471 168.799 51.0623C165.966 51.6145 162.997 51.9329 160.019 51.9813C159.763 54.6739 158.516 57.302 156.46 59.3376C155.683 60.1075 154.719 60.825 153.552 60.9701C155.483 58.2694 156.371 55.0488 156.19 51.8805C152.416 51.6306 148.708 50.9051 145.297 49.6071C142.482 48.5309 138.779 46.5598 138.779 43.5165C138.779 39.8847 143.348 37.9298 146.768 36.9301C150.899 35.7249 155.282 35.1122 159.666 35.1162Z" fill="#0D3451" stroke="white" stroke-width="0.5" stroke-miterlimit="10"/>
<path d="M174.127 42.8594C173.931 44.3548 172.368 45.6004 170.702 45.5842C169.036 45.5681 167.506 44.2863 167.352 42.7868C167.296 42.2225 167.482 41.5574 168.059 41.3357C168.632 41.114 169.334 41.4808 169.576 42.0008C169.818 42.5208 169.697 43.1295 169.446 43.6494C168.692 45.2295 166.733 46.2614 164.844 46.072C162.955 45.8866 161.289 44.4919 160.931 42.803C160.81 42.2266 160.88 41.5292 161.415 41.1947C162.08 40.7835 163.076 41.2672 163.309 41.9686C163.541 42.6659 163.202 43.4277 162.718 44.0082C161.703 45.2174 159.986 45.8382 158.33 45.7737C157.59 45.7455 156.618 45.5883 155.999 45.2013C155.092 44.633 154.189 42.807 154.901 41.888C155.04 41.7066 155.268 41.5655 155.515 41.5736C155.682 41.5816 155.836 41.6542 155.962 41.7549C156.287 42.0089 156.432 42.4079 156.446 42.7949C156.473 43.593 155.952 44.4879 155.371 45.0723C154.287 46.1607 152.407 46.4872 150.913 45.9188C149.42 45.3505 148.377 43.9679 148.228 42.5087C148.173 41.9605 148.433 41.2309 149.038 41.2591C149.485 41.2793 149.75 41.7227 149.848 42.1177C150.132 43.2584 149.731 44.5201 148.815 45.3505C147.903 46.1768 146.512 46.5476 145.251 46.2896" fill="#0D3451"/>
<path d="M174.127 42.8594C173.931 44.3548 172.368 45.6004 170.702 45.5842C169.036 45.5681 167.506 44.2863 167.352 42.7868C167.296 42.2225 167.482 41.5574 168.059 41.3357C168.632 41.114 169.334 41.4808 169.576 42.0008C169.818 42.5208 169.697 43.1295 169.446 43.6494C168.692 45.2295 166.733 46.2614 164.844 46.072C162.955 45.8866 161.289 44.4919 160.931 42.803C160.81 42.2266 160.88 41.5292 161.415 41.1947C162.08 40.7835 163.076 41.2672 163.309 41.9686C163.541 42.6659 163.202 43.4277 162.718 44.0082C161.703 45.2174 159.986 45.8382 158.33 45.7737C157.59 45.7455 156.618 45.5883 155.999 45.2013C155.092 44.633 154.189 42.807 154.901 41.888C155.04 41.7066 155.268 41.5655 155.515 41.5736C155.682 41.5816 155.836 41.6542 155.962 41.7549C156.287 42.0089 156.432 42.4079 156.446 42.7949C156.473 43.593 155.952 44.4879 155.371 45.0723C154.287 46.1607 152.407 46.4872 150.913 45.9188C149.42 45.3505 148.377 43.9679 148.228 42.5087C148.173 41.9605 148.433 41.2309 149.038 41.2591C149.485 41.2793 149.75 41.7227 149.848 42.1177C150.132 43.2584 149.731 44.5201 148.815 45.3505C147.903 46.1768 146.512 46.5476 145.251 46.2896" stroke="white" stroke-width="0.5" stroke-miterlimit="10"/>
<path d="M177.933 45.3867C177.039 47.1643 174.834 48.164 172.684 48.7001Z" fill="#0D3451"/>
<path d="M177.933 45.3867C177.039 47.1643 174.834 48.164 172.684 48.7001" stroke="white" stroke-width="0.5" stroke-miterlimit="10"/>
<path d="M171.609 49.1353C170.93 49.4134 170.19 49.5907 169.441 49.6552Z" fill="#0D3451"/>
<path d="M171.609 49.1353C170.93 49.4134 170.19 49.5907 169.441 49.6552" stroke="white" stroke-width="0.5" stroke-miterlimit="10"/>
<path d="M146.777 38.4619C145.097 38.9416 143.506 39.6591 142.091 40.5821Z" fill="#0D3451"/>
<path d="M146.777 38.4619C145.097 38.9416 143.506 39.6591 142.091 40.5821" stroke="white" stroke-width="0.5" stroke-miterlimit="10"/>
<path d="M45.8226 33.6531C45.8087 33.6451 45.7947 33.633 45.7808 33.6249C44.9665 33.0525 43.9987 32.6656 43.0169 32.3471C40.1647 31.4281 37.1077 31.0734 34.0693 30.9283C30.0213 30.7348 26.0384 30.7509 22.009 31.1097C16.8116 31.5732 9.29252 32.4721 8.2968 37.9541C8.19443 38.5264 8.20374 39.1109 8.34798 39.6752C8.82258 41.5415 10.6419 42.9765 12.6752 43.7182C14.7085 44.4598 16.9466 44.6211 19.1474 44.7702C25.6987 45.2136 32.3664 45.6086 38.7967 44.5646C38.8153 45.3144 38.8572 46.0641 39.0619 46.7937C39.7459 49.2283 42.4446 51.1309 45.3387 51.2115C43.2914 50.3852 42.0631 48.4665 41.7001 46.5357C41.5419 45.7013 41.528 44.8589 41.5838 44.0164C43.566 43.5368 45.5248 42.8032 46.7997 41.4206C48.9215 39.119 48.419 35.5154 45.8226 33.6531Z" fill="#0D3451" stroke="white" stroke-width="0.5" stroke-miterlimit="10"/>
<path d="M15.3832 40.4893C16.0253 38.8245 17.491 37.4097 19.3335 36.6801C19.9523 36.4342 20.6456 36.2609 21.311 36.3859C22.5952 36.6237 23.3025 37.8733 23.3816 39.01C23.4095 39.4211 23.3769 39.8524 23.1349 40.2071C22.893 40.5618 22.3998 40.8117 21.9438 40.7069C21.4692 40.5981 21.1854 40.1346 21.2086 39.7113C21.2319 39.284 21.4971 38.8971 21.8089 38.5666C22.4882 37.845 23.4188 37.313 24.4192 36.9784C25.7359 36.535 27.3319 36.4504 28.4858 37.1598C29.6397 37.8692 29.9747 39.5461 28.8767 40.3159C28.6533 40.4731 28.3648 40.586 28.081 40.5376C27.4156 40.4207 27.3552 39.5985 27.625 39.0583C28.2625 37.7805 29.8026 36.9582 31.3939 36.7406C32.1384 36.6398 32.9526 36.668 33.5668 37.051C34.7207 37.7684 34.5672 39.3445 33.8413 40.4006C33.7064 40.5981 33.5389 40.7996 33.2923 40.8803C32.827 41.0294 32.3105 40.6465 32.2407 40.2192C32.1756 39.7919 32.4268 39.3768 32.7293 39.0341C33.5342 38.1111 34.7393 37.4621 36.0468 37.2404C37.0844 37.0671 38.336 37.2444 38.8665 38.0345C39.3969 38.8205 38.9688 39.8403 38.35 40.578C38.2476 40.6989 38.1127 40.8279 37.9406 40.8238C37.7824 40.8198 37.666 40.7069 37.5683 40.5981C36.447 39.3929 37.3264 38.5706 38.5454 37.704C39.3504 37.1316 40.495 36.9421 41.4907 37.2122" fill="#0D3451"/>
<path d="M15.3832 40.4893C16.0253 38.8245 17.491 37.4097 19.3335 36.6801C19.9523 36.4342 20.6456 36.2609 21.311 36.3859C22.5952 36.6237 23.3025 37.8733 23.3816 39.01C23.4095 39.4211 23.3769 39.8524 23.1349 40.2071C22.893 40.5618 22.3998 40.8117 21.9438 40.7069C21.4692 40.5981 21.1854 40.1346 21.2086 39.7113C21.2319 39.284 21.4971 38.8971 21.8089 38.5666C22.4882 37.845 23.4188 37.313 24.4192 36.9784C25.7359 36.535 27.3319 36.4504 28.4858 37.1598C29.6397 37.8692 29.9747 39.5461 28.8767 40.3159C28.6533 40.4731 28.3648 40.586 28.081 40.5376C27.4156 40.4207 27.3552 39.5985 27.625 39.0583C28.2625 37.7805 29.8026 36.9582 31.3939 36.7406C32.1384 36.6398 32.9526 36.668 33.5668 37.051C34.7207 37.7684 34.5672 39.3445 33.8413 40.4006C33.7064 40.5981 33.5389 40.7996 33.2923 40.8803C32.827 41.0294 32.3105 40.6465 32.2407 40.2192C32.1756 39.7919 32.4268 39.3768 32.7293 39.0341C33.5342 38.1111 34.7393 37.4621 36.0468 37.2404C37.0844 37.0671 38.336 37.2444 38.8665 38.0345C39.3969 38.8205 38.9688 39.8403 38.35 40.578C38.2476 40.6989 38.1127 40.8279 37.9406 40.8238C37.7824 40.8198 37.666 40.7069 37.5683 40.5981C36.447 39.3929 37.3264 38.5706 38.5454 37.704C39.3504 37.1316 40.495 36.9421 41.4907 37.2122" stroke="white" stroke-width="0.5" stroke-miterlimit="10"/>
<path d="M46.4879 38.0752C46.5577 39.1071 45.9621 40.1229 45.0781 40.8121C44.1893 41.5054 43.0401 41.9005 41.8722 42.106" fill="#0D3451"/>
<path d="M46.4879 38.0752C46.5577 39.1071 45.9621 40.1229 45.0781 40.8121C44.1893 41.5054 43.0401 41.9005 41.8722 42.106" stroke="white" stroke-width="0.5" stroke-miterlimit="10"/>
<path d="M46.2275 36.7889C46.181 36.0997 45.5947 35.5394 45.0457 35.0396Z" fill="#0D3451"/>
<path d="M46.2275 36.7889C46.181 36.0997 45.5947 35.5394 45.0457 35.0396" stroke="white" stroke-width="0.5" stroke-miterlimit="10"/>
<path d="M13.5779 33.9434C12.3077 34.29 11.1956 35.0397 10.493 36.0152C9.79043 36.9947 9.51591 38.1919 9.72064 39.3326" fill="#0D3451"/>
<path d="M13.5779 33.9434C12.3077 34.29 11.1956 35.0397 10.493 36.0152C9.79043 36.9947 9.51591 38.1919 9.72064 39.3326" stroke="white" stroke-width="0.5" stroke-miterlimit="10"/>
<path d="M10.0463 40.2959C10.2603 40.828 10.6418 41.3117 11.1397 41.6744Z" fill="#0D3451"/>
<path d="M10.0463 40.2959C10.2603 40.828 10.6418 41.3117 11.1397 41.6744" stroke="white" stroke-width="0.5" stroke-miterlimit="10"/>
<path d="M11.3257 36.3135C10.9535 36.7488 10.7162 37.2688 10.6417 37.8049Z" fill="#0D3451"/>
<path d="M11.3257 36.3135C10.9535 36.7488 10.7162 37.2688 10.6417 37.8049" stroke="white" stroke-width="0.5" stroke-miterlimit="10"/>
</g>
<defs>
<clipPath id="clip0_1_405">
<rect width="182" height="147" fill="white"/>
</clipPath>
</defs>
</svg>
