<svg width="37" height="39" viewBox="0 0 37 39" fill="none" xmlns="http://www.w3.org/2000/svg">
<path d="M34.6875 3.64854L25.4294 3.64857V1.21904C25.4294 0.545518 24.912 0 24.2732 0C23.6343 0 23.1169 0.545518 23.1169 1.21904V3.64796H13.8669V1.21904C13.8669 0.545518 13.3495 0 12.7107 0C12.0718 0 11.5544 0.545518 11.5544 1.21904V3.64796H2.3125C1.03542 3.64796 0 4.73961 0 6.08604V36.5619C0 37.9083 1.03542 39 2.3125 39H34.6875C35.9646 39 37 37.9083 37 36.5619V6.08604C37 4.74018 35.9646 3.64854 34.6875 3.64854ZM34.6875 36.5619H2.3125V6.08604H11.5544V7.31421C11.5544 7.98769 12.0718 8.53325 12.7107 8.53325C13.3495 8.53325 13.8669 7.98769 13.8669 7.31421V6.08665H23.1169V7.31482C23.1169 7.98834 23.6343 8.53386 24.2732 8.53386C24.912 8.53386 25.4294 7.98834 25.4294 7.31482V6.08665H34.6875V36.5619ZM26.5938 19.496H28.9062C29.5445 19.496 30.0625 18.9499 30.0625 18.277V15.8389C30.0625 15.166 29.5445 14.6199 28.9062 14.6199H26.5938C25.9555 14.6199 25.4375 15.166 25.4375 15.8389V18.277C25.4375 18.9499 25.9555 19.496 26.5938 19.496ZM26.5938 29.2477H28.9062C29.5445 29.2477 30.0625 28.7022 30.0625 28.0286V25.5906C30.0625 24.9177 29.5445 24.3715 28.9062 24.3715H26.5938C25.9555 24.3715 25.4375 24.9177 25.4375 25.5906V28.0286C25.4375 28.7028 25.9555 29.2477 26.5938 29.2477ZM19.6562 24.3715H17.3438C16.7055 24.3715 16.1875 24.9177 16.1875 25.5906V28.0286C16.1875 28.7022 16.7055 29.2477 17.3438 29.2477H19.6562C20.2945 29.2477 20.8125 28.7022 20.8125 28.0286V25.5906C20.8125 24.9183 20.2945 24.3715 19.6562 24.3715ZM19.6562 14.6199H17.3438C16.7055 14.6199 16.1875 15.166 16.1875 15.8389V18.277C16.1875 18.9499 16.7055 19.496 17.3438 19.496H19.6562C20.2945 19.496 20.8125 18.9499 20.8125 18.277V15.8389C20.8125 15.1654 20.2945 14.6199 19.6562 14.6199ZM10.4062 14.6199H8.09375C7.4555 14.6199 6.9375 15.166 6.9375 15.8389V18.277C6.9375 18.9499 7.4555 19.496 8.09375 19.496H10.4062C11.0445 19.496 11.5625 18.9499 11.5625 18.277V15.8389C11.5625 15.1654 11.0445 14.6199 10.4062 14.6199ZM10.4062 24.3715H8.09375C7.4555 24.3715 6.9375 24.9177 6.9375 25.5906V28.0286C6.9375 28.7022 7.4555 29.2477 8.09375 29.2477H10.4062C11.0445 29.2477 11.5625 28.7022 11.5625 28.0286V25.5906C11.5625 24.9183 11.0445 24.3715 10.4062 24.3715Z" fill="black"/>
</svg>
